<svg width="184" height="33" viewBox="0 0 184 33" fill="none" xmlns="http://www.w3.org/2000/svg">
<path d="M17.81 32.45C14.63 32.45 11.75 31.76 9.17 30.38C6.62 28.97 4.61 27.035 3.14 24.575C1.7 22.115 0.98 19.34 0.98 16.25C0.98 13.16 1.715 10.385 3.185 7.925C4.655 5.465 6.665 3.545 9.215 2.165C11.795 0.754998 14.675 0.0499983 17.855 0.0499983C20.435 0.0499983 22.79 0.499999 24.92 1.4C27.05 2.3 28.85 3.605 30.32 5.315L26.54 8.87C24.26 6.41 21.455 5.18 18.125 5.18C15.965 5.18 14.03 5.66 12.32 6.62C10.61 7.55 9.275 8.855 8.315 10.535C7.355 12.215 6.875 14.12 6.875 16.25C6.875 18.38 7.355 20.285 8.315 21.965C9.275 23.645 10.61 24.965 12.32 25.925C14.03 26.855 15.965 27.32 18.125 27.32C21.455 27.32 24.26 26.075 26.54 23.585L30.32 27.185C28.85 28.895 27.035 30.2 24.875 31.1C22.745 32 20.39 32.45 17.81 32.45ZM63.9153 0.499998V32H58.0653V18.5H41.7753V32H35.9253V0.499998H41.7753V13.505H58.0653V0.499998H63.9153ZM95.981 27.095V32H72.356V0.499998H95.351V5.405H78.206V13.595H93.416V18.41H78.206V27.095H95.981ZM122.932 24.71H107.182L104.077 32H98.0475L112.222 0.499998H117.982L132.202 32H126.082L122.932 24.71ZM120.997 20.12L115.057 6.35L109.162 20.12H120.997ZM141.016 5.45H130.576V0.499998H157.306V5.45H146.866V32H141.016V5.45ZM171.154 32.45C168.724 32.45 166.369 32.105 164.089 31.415C161.839 30.725 160.054 29.81 158.734 28.67L160.759 24.125C162.049 25.145 163.624 25.985 165.484 26.645C167.374 27.275 169.264 27.59 171.154 27.59C173.494 27.59 175.234 27.215 176.374 26.465C177.544 25.715 178.129 24.725 178.129 23.495C178.129 22.595 177.799 21.86 177.139 21.29C176.509 20.69 175.699 20.225 174.709 19.895C173.719 19.565 172.369 19.19 170.659 18.77C168.259 18.2 166.309 17.63 164.809 17.06C163.339 16.49 162.064 15.605 160.984 14.405C159.934 13.175 159.409 11.525 159.409 9.455C159.409 7.715 159.874 6.14 160.804 4.73C161.764 3.29 163.189 2.15 165.079 1.31C166.999 0.469998 169.339 0.0499983 172.099 0.0499983C174.019 0.0499983 175.909 0.289999 177.769 0.77C179.629 1.25 181.234 1.94 182.584 2.84L180.739 7.385C179.359 6.575 177.919 5.96 176.419 5.54C174.919 5.12 173.464 4.91 172.054 4.91C169.744 4.91 168.019 5.3 166.879 6.08C165.769 6.86 165.214 7.895 165.214 9.185C165.214 10.085 165.529 10.82 166.159 11.39C166.819 11.96 167.644 12.41 168.634 12.74C169.624 13.07 170.974 13.445 172.684 13.865C175.024 14.405 176.944 14.975 178.444 15.575C179.944 16.145 181.219 17.03 182.269 18.23C183.349 19.43 183.889 21.05 183.889 23.09C183.889 24.83 183.409 26.405 182.449 27.815C181.519 29.225 180.094 30.35 178.174 31.19C176.254 32.03 173.914 32.45 171.154 32.45Z" fill="white" fill-opacity="0.05"/>
</svg>
