<svg width="270" height="42" viewBox="0 0 270 42" fill="none" xmlns="http://www.w3.org/2000/svg">
<path d="M60.435 2.5L47.675 41H40.085L30.57 12.51L20.89 41H13.245L0.485 2.5H7.91L17.48 31.76L27.435 2.5H34.035L43.77 31.925L53.615 2.5H60.435ZM74.6177 11.3C78.9444 11.3 82.2444 12.345 84.5177 14.435C86.8277 16.4883 87.9827 19.605 87.9827 23.785V41H81.4927V37.425C80.6494 38.7083 79.4394 39.6983 77.8627 40.395C76.3227 41.055 74.4527 41.385 72.2527 41.385C70.0527 41.385 68.1277 41.0183 66.4777 40.285C64.8277 39.515 63.5444 38.47 62.6277 37.15C61.7477 35.7933 61.3077 34.2717 61.3077 32.585C61.3077 29.945 62.2794 27.8367 64.2227 26.26C66.2027 24.6467 69.301 23.84 73.5177 23.84H81.1077V23.4C81.1077 21.3467 80.4844 19.77 79.2377 18.67C78.0277 17.57 76.2127 17.02 73.7927 17.02C72.1427 17.02 70.511 17.2767 68.8977 17.79C67.321 18.3033 65.9827 19.0183 64.8827 19.935L62.1877 14.93C63.7277 13.7567 65.5794 12.8583 67.7427 12.235C69.906 11.6117 72.1977 11.3 74.6177 11.3ZM73.6827 36.38C75.406 36.38 76.9277 35.995 78.2477 35.225C79.6044 34.4183 80.5577 33.2817 81.1077 31.815V28.405H74.0127C70.0527 28.405 68.0727 29.7067 68.0727 32.31C68.0727 33.5567 68.5677 34.5467 69.5577 35.28C70.5477 36.0133 71.9227 36.38 73.6827 36.38ZM96.8059 0.189998H103.681V41H96.8059V0.189998ZM112.704 0.189998H119.579V41H112.704V0.189998ZM163.473 2.5V41H156.323V24.5H136.413V41H129.263V2.5H136.413V18.395H156.323V2.5H163.473ZM184.349 11.3C188.676 11.3 191.976 12.345 194.249 14.435C196.559 16.4883 197.714 19.605 197.714 23.785V41H191.224V37.425C190.381 38.7083 189.171 39.6983 187.594 40.395C186.054 41.055 184.184 41.385 181.984 41.385C179.784 41.385 177.859 41.0183 176.209 40.285C174.559 39.515 173.276 38.47 172.359 37.15C171.479 35.7933 171.039 34.2717 171.039 32.585C171.039 29.945 172.011 27.8367 173.954 26.26C175.934 24.6467 179.032 23.84 183.249 23.84H190.839V23.4C190.839 21.3467 190.216 19.77 188.969 18.67C187.759 17.57 185.944 17.02 183.524 17.02C181.874 17.02 180.242 17.2767 178.629 17.79C177.052 18.3033 175.714 19.0183 174.614 19.935L171.919 14.93C173.459 13.7567 175.311 12.8583 177.474 12.235C179.637 11.6117 181.929 11.3 184.349 11.3ZM183.414 36.38C185.137 36.38 186.659 35.995 187.979 35.225C189.336 34.4183 190.289 33.2817 190.839 31.815V28.405H183.744C179.784 28.405 177.804 29.7067 177.804 32.31C177.804 33.5567 178.299 34.5467 179.289 35.28C180.279 36.0133 181.654 36.38 183.414 36.38ZM220.281 41.385C217.238 41.385 214.506 40.7433 212.086 39.46C209.666 38.1767 207.778 36.3983 206.421 34.125C205.064 31.815 204.386 29.2117 204.386 26.315C204.386 23.4183 205.064 20.8333 206.421 18.56C207.778 16.2867 209.648 14.5083 212.031 13.225C214.451 11.9417 217.201 11.3 220.281 11.3C223.178 11.3 225.708 11.8867 227.871 13.06C230.071 14.2333 231.721 15.92 232.821 18.12L227.541 21.2C226.698 19.8433 225.634 18.835 224.351 18.175C223.104 17.4783 221.729 17.13 220.226 17.13C217.659 17.13 215.533 17.9733 213.846 19.66C212.159 21.31 211.316 23.5283 211.316 26.315C211.316 29.1017 212.141 31.3383 213.791 33.025C215.478 34.675 217.623 35.5 220.226 35.5C221.729 35.5 223.104 35.17 224.351 34.51C225.634 33.8133 226.698 32.7867 227.541 31.43L232.821 34.51C231.684 36.71 230.016 38.415 227.816 39.625C225.653 40.7983 223.141 41.385 220.281 41.385ZM250.485 28.405L245.37 33.245V41H238.495V0.189998H245.37V24.83L259.615 11.63H267.865L255.6 23.95L269.02 41H260.66L250.485 28.405Z" fill="white" fill-opacity="0.15"/>
</svg>
