<svg width="271" height="108" viewBox="0 0 271 108" fill="none" xmlns="http://www.w3.org/2000/svg">
<path d="M47.9081 62.8675L46.653 96.0287L40.6887 97.758L26.7204 77.538L25.6049 102.131L19.5973 103.873L0.798364 76.5266L6.63306 74.8349L20.82 95.6474L21.9762 70.3862L27.1626 68.8825L41.5167 89.7871L42.5489 64.4214L47.9081 62.8675ZM77.8784 79.3849L62.7514 83.7709L61.7992 91.6372L56.0078 93.3164L60.8502 59.115L66.3823 57.511L88.8117 83.8051L82.9338 85.5094L77.8784 79.3849ZM74.7417 75.5154L65.2021 63.9442L63.3748 78.8111L74.7417 75.5154ZM83.8874 52.4356L89.506 50.8065L96.8995 76.3063L112.718 71.7198L114.096 76.474L92.6593 82.6896L83.8874 52.4356ZM109.76 44.9339L115.379 43.3049L122.772 68.8047L138.591 64.2182L139.969 68.9724L118.532 75.1879L109.76 44.9339ZM162.516 29.6378L171.288 59.8918L165.669 61.5209L161.91 48.5549L146.264 53.0912L150.024 66.0572L144.405 67.6863L135.633 37.4323L141.252 35.8032L144.873 48.2938L160.519 43.7575L156.897 31.2669L162.516 29.6378ZM196.987 44.8505L181.86 49.2364L180.907 57.1027L175.116 58.7819L179.958 24.5806L185.491 22.9766L207.92 49.2707L202.042 50.9749L196.987 44.8505ZM193.85 40.9809L184.31 29.4097L182.483 44.2766L193.85 40.9809ZM225.474 44.6495C222.42 45.5351 219.462 45.6744 216.599 45.0674C213.758 44.4233 211.288 43.1246 209.191 41.1712C207.123 39.2096 205.659 36.7448 204.799 33.777C203.938 30.8093 203.871 27.9394 204.598 25.1673C205.325 22.3953 206.721 19.9915 208.785 17.956C210.871 15.8833 213.441 14.4042 216.495 13.5186C218.973 12.8002 221.36 12.5766 223.656 12.8478C225.953 13.1191 228.045 13.8712 229.933 15.1042L227.292 19.5712C224.417 17.8434 221.381 17.4432 218.183 18.3705C216.108 18.972 214.383 19.9719 213.008 21.3701C211.625 22.7395 210.706 24.3646 210.252 26.2455C209.798 28.1264 209.867 30.0897 210.46 32.1354C211.053 34.1812 212.045 35.8772 213.435 37.2234C214.825 38.5696 216.474 39.4656 218.384 39.9115C220.286 40.3285 222.273 40.2362 224.348 39.6347C227.546 38.7074 229.894 36.7306 231.39 33.7041L236.023 36.1091C235.087 38.1608 233.708 39.9196 231.884 41.3855C230.089 42.8431 227.952 43.9311 225.474 44.6495ZM249.492 23.4892L246.123 29.8073L248.366 37.5436L242.747 39.1727L233.976 8.91872L239.594 7.28966L244.093 22.8056L254.548 2.95383L260.858 1.12426L252.074 18.3363L270.408 31.1527L263.839 33.0574L249.492 23.4892Z" fill="white" fill-opacity="0.05"/>
</svg>
